<svg width="24" height="24" viewBox="0 0 24 24" fill="none" xmlns="http://www.w3.org/2000/svg">
<path d="M12.1071 5.05358C11.325 5.05358 10.5732 4.9393 9.94019 4.73841C10.0938 4.53214 10.2581 4.34018 10.425 4.15536C10.9348 4.05446 11.4607 4 12 4C12.5741 4 13.1357 4.06161 13.6759 4.17857C13.8473 4.36607 14.0116 4.5625 14.167 4.775C13.5589 4.95269 12.85 5.05358 12.1071 5.05358Z" fill="white"/>
<path d="M9.29215 4.48348C9.29617 4.48527 9.30019 4.48705 9.30376 4.48928C9.30715 4.48504 9.30994 4.4808 9.3126 4.47675C9.31555 4.47227 9.31834 4.46803 9.32162 4.46428C9.31714 4.46568 9.31275 4.46682 9.30842 4.46794C9.29893 4.47039 9.28974 4.47277 9.28055 4.47768C9.28411 4.47991 9.28814 4.4817 9.29215 4.48348Z" fill="white"/>
<path d="M14.8412 4.52321C14.8341 4.5204 14.827 4.51773 14.8199 4.51509C14.809 4.51101 14.7982 4.50701 14.7885 4.50267C14.7923 4.50761 14.7958 4.51255 14.7992 4.51741C14.8038 4.52397 14.8084 4.53046 14.8135 4.5366C14.8233 4.53215 14.8323 4.52767 14.8412 4.52321Z" fill="white"/>
<path d="M8.93486 5.04909C8.34291 6.0276 7.87594 7.1768 7.56076 8.44107C6.76612 8.1509 6.06439 7.78297 5.49474 7.35083C6.26969 6.26785 7.30451 5.38749 8.51164 4.79999C8.64201 4.88927 8.78396 4.97141 8.93486 5.04909Z" fill="white"/>
<path d="M12.0526 9.18394C13.4124 9.18394 14.7266 8.99465 15.8882 8.65181C15.5847 7.41252 15.132 6.29297 14.5507 5.35354C13.8373 5.58925 12.9963 5.7214 12.1053 5.7214C11.1749 5.7214 10.2883 5.57498 9.55169 5.31428C8.96241 6.26248 8.4999 7.39463 8.19188 8.64911C9.35795 8.99196 10.6784 9.18394 12.0526 9.18394Z" fill="white"/>
<path d="M18.9027 7.96604C19.6 9.14981 20 10.5275 20 11.9998C20 12.1231 19.9956 12.2465 19.9885 12.3706C19.1152 12.8848 18.0866 13.3081 16.9572 13.6232C16.9848 13.2349 16.9982 12.842 16.9982 12.4465C16.9982 11.2919 16.8866 10.1669 16.6715 9.10889C17.5179 8.80711 18.2741 8.42586 18.9027 7.96604Z" fill="white"/>
<path d="M16.0367 9.31157C16.2313 10.3035 16.334 11.3598 16.334 12.4455C16.334 12.9008 16.3132 13.3508 16.2784 13.7963C14.9598 14.1026 13.5285 14.2695 12.0634 14.2695C10.5777 14.2695 9.133 14.1008 7.80533 13.7874C7.76872 13.3463 7.74819 12.8981 7.74819 12.4454C7.74819 11.3526 7.85354 10.2919 8.04997 9.2955C9.2687 9.65175 10.6357 9.85085 12.0527 9.85085C13.4769 9.85085 14.8322 9.66155 16.0367 9.31157Z" fill="white"/>
<path d="M12.0618 14.9348C10.61 14.9348 9.19298 14.7767 7.87436 14.4847C8.05293 15.9178 8.4181 17.2669 8.944 18.4303C9.93327 18.6455 10.9851 18.7776 12.0573 18.7776C13.127 18.7776 14.1645 18.6473 15.1296 18.4419C15.6572 17.2785 16.0233 15.9347 16.2037 14.5036C14.9072 14.784 13.5109 14.9348 12.0618 14.9348Z" fill="white"/>
<path d="M8.59919 19.2392C8.57682 19.1965 8.55561 19.1526 8.53423 19.1084C8.51808 19.075 8.50181 19.0414 8.48491 19.0079C8.27955 18.9597 8.07597 18.907 7.87419 18.8499C8.10722 18.9919 8.35007 19.1222 8.59919 19.2392Z" fill="white"/>
<path d="M4.07784 13.1035C4.3198 14.8589 5.13586 16.4356 6.32692 17.6356C6.88673 17.857 7.49477 18.0633 8.13941 18.2347C7.66442 17.0508 7.33941 15.7177 7.18405 14.3152C6.0412 14.0116 4.98946 13.6044 4.07784 13.1035Z" fill="white"/>
<path d="M15.9357 18.2489C16.4134 17.0695 16.7384 15.7392 16.8937 14.3383C17.9972 14.0482 19.017 13.6615 19.9099 13.1839C19.6499 14.9365 18.8178 16.5043 17.6107 17.6954C17.0964 17.8972 16.5348 18.0864 15.9357 18.2489Z" fill="white"/>
<path d="M15.5929 19.0168C15.5841 19.0351 15.5756 19.0533 15.5671 19.0714C15.5489 19.1102 15.5309 19.1485 15.5108 19.1856C15.6849 19.1008 15.8563 19.007 16.0224 18.9088C15.8813 18.9481 15.7376 18.9829 15.5929 19.0168Z" fill="white"/>
<path d="M7.11963 13.6116C7.09463 13.2277 7.08034 12.8366 7.08034 12.4456C7.08034 11.2822 7.19463 10.1528 7.41159 9.09015C6.53838 8.77943 5.76159 8.38122 5.12589 7.90801C4.41339 9.10622 4 10.5052 4 11.9999C4 12.0707 4.00232 12.1415 4.00462 12.2117C4.00551 12.2388 4.0064 12.2658 4.00714 12.2927C4.89642 12.8391 5.9545 13.2822 7.11963 13.6116Z" fill="white"/>
<path d="M9.58673 19.6276C9.49477 19.4829 9.41084 19.3347 9.32602 19.1838C10.2055 19.3463 11.1253 19.4445 12.0601 19.4463C12.9333 19.4463 13.8458 19.357 14.7529 19.1928C14.677 19.3303 14.5976 19.4624 14.5172 19.5928C13.7261 19.8561 12.8806 19.9999 12.0002 19.9999C11.159 19.9999 10.3474 19.8695 9.58673 19.6276Z" fill="white"/>
<path d="M15.6071 4.8616C16.7794 5.45794 17.7874 6.33293 18.5392 7.40078C17.9794 7.81507 17.2964 8.16702 16.5214 8.4456C16.2107 7.20177 15.7562 6.06607 15.1777 5.09911C15.3303 5.02588 15.475 4.94642 15.6071 4.8616Z" fill="white"/>
</svg>
